<svg width="22" height="25" viewBox="0 0 22 25" fill="none" xmlns="http://www.w3.org/2000/svg">
<g opacity="0.5">
<path d="M5.63386 21.1181L10.1063 24.7776C10.2854 24.9272 10.5079 25 10.7283 25C10.9488 25 11.1713 24.9252 11.3504 24.7776L15.8228 21.1181C19.4035 18.189 21.4567 13.8563 21.4567 9.23031V4.52756C21.4567 4.11417 21.1988 3.74409 20.8091 3.60236L11.065 0.0590551C10.8484 -0.019685 10.6102 -0.019685 10.3917 0.0590551L0.647638 3.60236C0.257874 3.74409 0 4.11417 0 4.52756V9.23228C0 13.8563 2.05315 18.189 5.63386 21.1181ZM1.9685 5.21654L10.7283 2.0315L19.4882 5.21654V9.23228C19.4882 13.2638 17.6988 17.0413 14.5768 19.5945L10.7283 22.7441L6.87795 19.5945C3.75787 17.0413 1.9685 13.2638 1.9685 9.23228V5.21654Z" fill="black"/>
<path d="M7.62834 15.9192H13.8291C14.3724 15.9192 14.8134 15.4782 14.8134 14.9349V10.9487C14.8134 10.4389 14.4216 10.0353 13.9276 9.98413V8.73413C13.9276 6.97035 12.4925 5.53531 10.7287 5.53531C8.96495 5.53531 7.52992 6.97035 7.52992 8.73413V9.98413C7.03385 10.0353 6.64409 10.4389 6.64409 10.9487V14.9349C6.64409 15.4802 7.08307 15.9192 7.62834 15.9192ZM12.8449 13.9507H8.61259V11.9329H12.8449V13.9507ZM9.49842 8.73413C9.49842 8.05499 10.0496 7.50381 10.7287 7.50381C11.4079 7.50381 11.959 8.05499 11.959 8.73413V9.96444H9.49842V8.73413Z" fill="black"/>
</g>
</svg>
