<svg width="30" height="20" viewBox="0 0 30 20" fill="none" xmlns="http://www.w3.org/2000/svg">
<path d="M28.5573 2.94599L19.6735 0.0457926C19.5209 -0.0152642 19.3683 -0.0152642 19.1851 0.0457926L10.3013 2.94599C9.99605 3.03757 9.78235 3.34286 9.78235 3.67867V15.3405C9.78235 15.6763 9.99605 15.9511 10.3013 16.0732L19.1851 18.9734C19.2767 19.0039 19.3377 19.0039 19.4293 19.0039C19.5209 19.0039 19.582 19.0039 19.6735 18.9734L28.5573 16.0427C28.8626 15.9511 29.0763 15.6458 29.0763 15.31V3.67867C29.0763 3.34286 28.8626 3.0681 28.5573 2.94599ZM18.6661 17.2027L11.3088 14.791V4.71663L14.2395 5.66301V11.3718C14.2395 11.7992 14.5753 12.135 15.0027 12.135C15.4301 12.135 15.7659 11.7992 15.7659 11.3718V6.18199L18.6966 7.12838V17.2027H18.6661ZM19.4293 5.78513L17.3534 5.1135L18.8187 4.59452C19.2156 4.44188 19.4293 4.01448 19.2767 3.61761C19.124 3.22074 18.6966 3.03757 18.2998 3.15969L15.0332 4.35029L12.9878 3.67867L19.4293 1.57221L25.8708 3.67867L19.4293 5.78513ZM27.5499 14.791L24.6191 15.7374V12.4403C24.6191 12.0129 24.2833 11.6771 23.8559 11.6771C23.4285 11.6771 23.1232 12.0129 23.1232 12.4403V16.2564L20.1925 17.2027V7.12838L27.5499 4.71663V14.791Z" fill="#6A7B7E"/>
<path d="M6.24095 4.50295H0.837428C0.410031 4.50295 0.0742188 4.83876 0.0742188 5.26616C0.0742188 5.69356 0.410031 6.02937 0.837428 6.02937H6.24095C6.66835 6.02937 7.00416 5.69356 7.00416 5.26616C6.97363 4.83876 6.63782 4.50295 6.24095 4.50295Z" fill="#6A7B7E"/>
<path d="M6.24095 8.74645H0.837428C0.410031 8.74645 0.0742188 9.08226 0.0742188 9.50966C0.0742188 9.93706 0.410031 10.2729 0.837428 10.2729H6.24095C6.66835 10.2729 7.00416 9.93706 7.00416 9.50966C7.00416 9.08226 6.63782 8.74645 6.24095 8.74645Z" fill="#6A7B7E"/>
<path d="M6.24095 12.9898H0.837428C0.410031 12.9898 0.0742188 13.3256 0.0742188 13.753C0.0742188 14.1804 0.410031 14.5162 0.837428 14.5162H6.24095C6.66835 14.5162 7.00416 14.1804 7.00416 13.753C7.00416 13.3256 6.63782 12.9898 6.24095 12.9898Z" fill="#6A7B7E"/>
</svg>
