<svg width="19" height="20" viewBox="0 0 19 20" fill="none" xmlns="http://www.w3.org/2000/svg">
<path d="M14.9031 19.8337C14.8198 19.8337 14.7365 19.8337 14.6532 19.8337L7.57245 19.3339C5.82309 19.1672 4.49023 17.7511 4.49023 16.0017V0.840543C4.49023 0.590634 4.65684 0.340724 4.82345 0.174118C5.07336 0.00751144 5.40657 -0.0757917 5.65648 0.0908146C8.48879 1.25706 10.1549 4.08937 9.73833 7.00498L9.65503 7.42149L15.0697 7.00498C15.153 7.00498 15.3196 7.00498 15.403 7.00498C16.3193 7.00498 17.2356 7.42149 17.8187 8.08792C18.4852 8.75434 18.7351 9.67068 18.7351 10.587L18.3186 16.7515C18.0687 18.4175 16.6525 19.8337 14.9031 19.8337ZM6.1563 2.2567V16.0017C6.1563 16.8348 6.82272 17.5845 7.65576 17.6678L14.7365 18.1676C14.8198 18.1676 14.8198 18.1676 14.9031 18.1676C15.7362 18.1676 16.4859 17.5012 16.5692 16.5848L16.9857 10.4204C16.9857 9.92059 16.9024 9.50407 16.5692 9.17086C16.236 8.75434 15.7362 8.58774 15.153 8.67104L8.7387 9.17086C8.48879 9.17086 8.23888 9.08756 8.07227 8.92095C7.90566 8.75434 7.82236 8.50444 7.82236 8.25453L7.98897 6.83837C8.32218 5.0057 7.57245 3.25634 6.1563 2.2567Z" fill="#6A7B7E"/>
<path d="M5.32339 19.9999H1.15823C0.658408 19.9999 0.325195 19.6667 0.325195 19.1669V7.50446C0.325195 7.00465 0.658408 6.67143 1.15823 6.67143H5.32339C5.8232 6.67143 6.15642 7.00465 6.15642 7.50446V19.1669C6.15642 19.6667 5.8232 19.9999 5.32339 19.9999ZM1.99126 18.3339H4.49035V8.3375H1.99126V18.3339Z" fill="#6A7B7E"/>
</svg>
